<svg width="161" height="116" viewBox="0 0 161 116" fill="none" xmlns="http://www.w3.org/2000/svg">
<path d="M137 0C150.255 0 161 10.7452 161 24V91.4199C161 104.675 150.255 115.42 137 115.42H24C10.7452 115.42 0 104.675 0 91.4199V24C0 10.7452 10.7452 2.41596e-07 24 0H137ZM32.8213 6.61621C19.5666 6.61624 8.82146 17.3615 8.82129 30.6162V84.8037C8.82129 98.0585 19.5665 108.804 32.8213 108.804H128.178C141.432 108.804 152.178 98.0585 152.178 84.8037V30.6162C152.178 17.3616 141.432 6.61634 128.178 6.61621H32.8213Z" fill="#D9D9D9"/>
<path d="M137 0C150.255 0 161 10.7452 161 24V91.4199C161 104.675 150.255 115.42 137 115.42H24C10.7452 115.42 0 104.675 0 91.4199V24C0 10.7452 10.7452 2.41596e-07 24 0H137ZM32.8213 6.61621C19.5666 6.61624 8.82146 17.3615 8.82129 30.6162V84.8037C8.82129 98.0585 19.5665 108.804 32.8213 108.804H128.178C141.432 108.804 152.178 98.0585 152.178 84.8037V30.6162C152.178 17.3616 141.432 6.61634 128.178 6.61621H32.8213Z" fill="black"/>
<rect x="8" y="6.21094" width="145" height="103" rx="24" fill="url(#paint0_linear_376_1179)"/>
<circle cx="83.6028" cy="58.055" r="4.13699" fill="#353232"/>
<circle cx="83.6028" cy="45.6428" r="3.44749" fill="#353232"/>
<circle cx="72.5705" cy="51.8498" r="3.44749" fill="#353232"/>
<circle cx="72.5705" cy="64.26" r="3.44749" fill="#353232"/>
<circle cx="83.6028" cy="70.4651" r="3.44749" fill="#353232"/>
<circle cx="94.635" cy="64.26" r="3.44749" fill="#353232"/>
<circle cx="94.635" cy="51.8498" r="3.44749" fill="#353232"/>
<circle cx="83.6027" cy="33.2326" r="2.06849" fill="#353232"/>
<circle cx="60.8497" cy="45.6427" r="2.06849" fill="#353232"/>
<circle cx="61.5392" cy="70.465" r="2.06849" fill="#353232"/>
<circle cx="106.357" cy="70.465" r="2.06849" fill="#353232"/>
<circle cx="106.357" cy="45.6427" r="2.06849" fill="#353232"/>
<circle cx="83.6027" cy="82.1876" r="2.06849" fill="#353232"/>
<circle cx="61.5392" cy="70.465" r="2.06849" fill="#353232"/>
<circle cx="94.6349" cy="76.6701" r="2.75799" fill="#353232"/>
<circle cx="72.5705" cy="76.6701" r="2.75799" fill="#353232"/>
<circle cx="60.8498" cy="58.0549" r="2.75799" fill="#353232"/>
<circle cx="72.5705" cy="38.7482" r="2.75799" fill="#353232"/>
<circle cx="94.6349" cy="38.7482" r="2.75799" fill="#353232"/>
<circle cx="105.666" cy="58.0549" r="2.75799" fill="#353232"/>
<defs>
<linearGradient id="paint0_linear_376_1179" x1="125.115" y1="12.139" x2="194.607" y2="169.412" gradientUnits="userSpaceOnUse">
<stop stop-color="white"/>
<stop offset="1" stop-color="#999999"/>
</linearGradient>
</defs>
</svg>
